<svg width="64" height="64" viewBox="0 0 64 64" fill="none" xmlns="http://www.w3.org/2000/svg">
<rect width="64" height="64" fill="white"/>
<path d="M50.9 29.5854C52.0598 29.5854 53.0151 30.5303 52.8503 31.6783C52.6225 33.2656 52.136 34.8227 51.4015 36.3057C50.3461 38.4363 48.7993 40.3722 46.8492 42.0029C44.8992 43.6336 42.5842 44.9271 40.0364 45.8096C37.4885 46.6921 34.7578 47.1464 32 47.1464C29.2422 47.1464 26.5115 46.6921 23.9636 45.8096C21.4158 44.9271 19.1008 43.6336 17.1508 42.0029C15.2007 40.3722 13.6539 38.4363 12.5985 36.3057C11.864 34.8227 11.3775 33.2656 11.1497 31.6783C10.9849 30.5303 11.9402 29.5854 13.1 29.5854V29.5854C14.2599 29.5854 15.1816 30.5328 15.3868 31.6743C15.5893 32.8006 15.9553 33.9046 16.4789 34.9616C17.3232 36.6661 18.5606 38.2148 20.1207 39.5193C21.6807 40.8239 23.5327 41.8587 25.5709 42.5647C27.6092 43.2707 29.7938 43.6341 32 43.6341C34.2062 43.6341 36.3908 43.2707 38.4291 42.5647C40.4673 41.8587 42.3193 40.8239 43.8793 39.5193C45.4394 38.2148 46.6768 36.6661 47.5211 34.9616C48.0447 33.9046 48.4107 32.8006 48.6132 31.6743C48.8184 30.5328 49.7401 29.5854 50.9 29.5854V29.5854Z" fill="black"/>
<rect x="30" y="43.8535" width="4" height="13.1707" rx="2" fill="black"/>
<rect x="22.5" y="7.5" width="19" height="31.0244" rx="9" stroke="black" stroke-width="3"/>
</svg>
